<?xml version="1.0" standalone="no"?>
<!DOCTYPE svg PUBLIC "-//W3C//DTD SVG 20010904//EN"
 "http://www.w3.org/TR/2001/REC-SVG-20010904/DTD/svg10.dtd">
<svg version="1.0" xmlns="http://www.w3.org/2000/svg"
 width="17.000000pt" height="17.000000pt" viewBox="0 0 17.000000 17.000000"
 preserveAspectRatio="xMidYMid meet">

<g transform="translate(0.000000,17.000000) scale(0.100000,-0.100000)"
fill="#000000" stroke="none">
<path d="M40 115 l44 -45 43 42 c23 23 40 44 38 47 -3 2 -22 -12 -43 -32 l-38
-37 -34 35 c-19 19 -38 35 -44 35 -6 0 10 -20 34 -45z"/>
<path d="M0 94 c0 -13 73 -84 86 -84 13 0 89 78 83 85 -3 2 -21 -11 -39 -30
-19 -19 -38 -35 -44 -35 -6 0 -27 17 -48 37 -21 20 -38 33 -38 27z"/>
</g>
</svg>
